<?xml version="1.0" encoding="UTF-8"?>
<svg width="96px" height="40px" viewBox="0 0 96 40" version="1.1" xmlns="http://www.w3.org/2000/svg" xmlns:xlink="http://www.w3.org/1999/xlink">
    <!-- Generator: sketchtool 54.1 (76490) - https://sketchapp.com -->
    <title>3BF13629-8EB1-41BA-89BD-CE565780CF98</title>
    <desc>Created with sketchtool.</desc>
    <defs>
        <polygon id="path-1" points="0.0120715268 0.0913803205 79.1944415 0.0913803205 79.1944415 29.0453138 0.0120715268 29.0453138"></polygon>
    </defs>
    <g id="Wordpress" stroke="none" stroke-width="1" fill="none" fill-rule="evenodd">
        <g id="Pro-2" transform="translate(-983.000000, -172.000000)">
            <g id="trustmark/engagement" transform="translate(983.000000, 172.000000)">
                <g id="background" fill="#FFFFFF" stroke="#000000" stroke-opacity="0.1">
                    <rect x="0.5" y="0.5" width="95" height="39"></rect>
                </g>
                <g id="logo/mcafee-secure-trustmark" transform="translate(4.000000, 5.600000)">
                    <g id="mcafee-secure-s-rgb" transform="translate(1.744000, 0.868571)">
                        <path d="M47.861389,9.29554269 L46.1242964,8.26751411 L45.9953323,8.46891152 C45.5993862,9.08853421 45.0583806,9.40275425 44.3878073,9.40215306 C43.2390004,9.40155188 42.3730696,8.53824834 42.3736732,7.39379002 C42.3742768,6.24953208 43.2412135,5.38743092 44.3900205,5.38783171 C45.0700498,5.3884329 45.5810777,5.68602012 45.9977466,6.32468037 L46.1275155,6.52307185 L47.8726558,5.49283892 L47.7217617,5.27540987 C46.8882228,4.07263647 45.7985664,3.48788259 44.3912276,3.48688062 C41.730462,3.48567824 40.293548,5.4982496 40.2927433,7.39238725 C40.2917373,9.28692569 41.7260358,11.3013006 44.3868014,11.302503 C45.7422326,11.3033046 47.0212108,10.6165494 47.7249808,9.50996581 L47.861389,9.29554269" id="Fill-1" fill="#AD262A"></path>
                        <path d="M52.7075052,5.03433406 L53.6794642,7.46513063 L51.7222674,7.46392825 L52.7075052,5.03433406 Z M47.7742745,11.3045068 L50.1761058,11.3059095 L50.889533,9.53782062 L54.4934871,9.53982458 L55.2051036,11.3085147 L57.6169945,11.3101178 L53.3149038,0.947870428 L51.1726103,0.94646766 L51.7429899,2.32017835 L47.7742745,11.3045068 L47.7742745,11.3045068 Z" id="Fill-2" fill="#AD262A"></path>
                        <path d="M58.6112844,11.3103179 L60.7185706,11.3115203 L60.7211861,6.66114403 L62.0953282,6.66194562 L62.0963342,4.71089575 L60.722192,4.71009416 L60.7227956,3.78807481 C60.7227956,3.39249424 60.9889728,2.97226503 61.4818935,2.97246542 C61.752698,2.97266582 61.9162672,3.01875676 62.0790317,3.08829398 L62.3138228,3.18889248 L63.1892097,1.28513593 L62.937116,1.18253347 C62.545395,1.02241753 61.9999632,0.965104436 61.6195089,0.96490404 C60.6638463,0.964302854 59.8761792,1.27551695 59.3410082,1.86447911 C58.8736389,2.37869377 58.6159118,3.09410545 58.6153082,3.87805235 L58.6147047,4.70889179 L57.6841911,4.708491 L57.6831852,6.65954087 L58.6138999,6.65974127 L58.6112844,11.3103179" id="Fill-3" fill="#AD262A"></path>
                        <polyline id="Fill-4" fill="#AD262A" points="30.3578761 0.886549377 30.3578761 11.2944872 32.6476434 11.2960904 32.6510637 5.34574865 34.8702126 6.99259835 37.0913734 5.34574865 37.0913734 11.2984951 39.3777205 11.2996975 39.3835551 0.886549377 34.8718221 4.28225006 30.3578761 0.886549377"></polyline>
                        <path d="M65.0033565,6.45613981 C65.2783861,5.74613877 65.872104,5.331721 66.6390484,5.33192139 C67.4140404,5.33232218 68.0192263,5.73832335 68.3399265,6.45794337 L65.0033565,6.45613981 Z M66.8412463,3.52275141 C64.1887297,3.52134865 62.7560407,5.52810855 62.7546324,7.41663514 C62.7540288,9.30576292 64.1843034,11.3137252 66.8370212,11.3153284 L66.8398379,11.3153284 C68.0562453,11.3021023 69.1968033,10.7502132 70.0798355,9.7544483 L68.3610514,8.82080596 C67.9202395,9.27029293 67.3850685,9.50675954 66.7945697,9.50635875 C65.9290413,9.50575757 65.1614935,8.93122385 64.9607037,8.17994136 L70.6924654,8.18294729 L70.6928678,7.6645243 C70.6942761,4.80929012 68.4415282,3.523553 66.8412463,3.52275141 L66.8412463,3.52275141 Z" id="Fill-5" fill="#AD262A"></path>
                        <path d="M73.6182005,6.46094929 C73.8930289,5.75094828 74.4861433,5.33633014 75.2536912,5.33693132 C76.0286832,5.33713172 76.6340703,5.74333325 76.9547705,6.46295324 L73.6182005,6.46094929 Z M75.4556883,3.52756095 C72.8029702,3.52595778 71.3708847,5.53271761 71.3696776,7.42144453 C71.3684704,9.31077264 72.798544,11.3185344 75.4516644,11.3199372 L75.4542799,11.3199372 C76.6708887,11.3069115 77.811648,10.7546217 78.6942778,9.75925761 L76.9754935,8.8256153 C76.5346816,9.27510225 75.9997118,9.51156886 75.4094141,9.51116807 C74.5434832,9.51056688 73.7759353,8.93623358 73.5753468,8.18475072 L79.3069078,8.18775665 L79.3075114,7.66933368 C79.3091209,4.8140996 77.0561716,3.52836253 75.4556883,3.52756095 L75.4556883,3.52756095 Z" id="Fill-6" fill="#AD262A"></path>
                        <polyline id="Fill-7" fill="#4C4F4F" points="80.5027974 14.4406956 81.8960528 14.4406956 81.8960528 14.7000073 81.3488102 14.7000073 81.3488102 16.1544774 81.0476257 16.1544774 81.0476257 14.7000073 80.5027974 14.7000073 80.5027974 14.4406956"></polyline>
                        <polyline id="Fill-8" fill="#4C4F4F" points="82.091008 14.4406956 82.515121 14.4406956 82.9901355 15.7825434 82.994763 15.7825434 83.457706 14.4406956 83.8767892 14.4406956 83.8767892 16.1544774 83.5900904 16.1544774 83.5900904 14.8318675 83.5852618 14.8318675 83.1084365 16.1544774 82.859763 16.1544774 82.3823342 14.8318675 82.3777067 14.8318675 82.3777067 16.1544774 82.091008 16.1544774 82.091008 14.4406956"></polyline>
                        <path d="M36.8652333,21.5717665 C36.8652333,22.4631254 36.5431247,23.1655113 35.8991088,23.6785236 C35.2548917,24.1919367 34.358782,24.4484429 33.210981,24.4484429 C32.1531129,24.4484429 31.2175696,24.2504522 30.4041498,23.8542704 L30.4041498,21.9094328 C31.0729124,22.2066192 31.639067,22.4160324 32.1024125,22.5374721 C32.5655567,22.6589117 32.9892673,22.7198319 33.3735442,22.7198319 C33.8346765,22.7198319 34.1881711,22.6320587 34.4346314,22.4565123 C34.6808906,22.2809659 34.8042213,22.0198507 34.8042213,21.6729662 C34.8042213,21.4795846 34.7498995,21.3072445 34.6414569,21.1563468 C34.5330144,21.0056494 34.3736702,20.8605631 34.1634244,20.7208875 C33.9533799,20.5814123 33.5248407,20.3585726 32.8786116,20.0523684 C32.2730234,19.7688088 31.8187316,19.496271 31.5159375,19.2351558 C31.2129421,18.9742409 30.9711092,18.6702411 30.7904387,18.323557 C30.609567,17.9768729 30.5192317,17.5718737 30.5192317,17.1079583 C30.5192317,16.2346351 30.8163925,15.5480803 31.410714,15.0482941 C32.0052367,14.5487083 32.8265029,14.2988152 33.8753173,14.2988152 C34.3905703,14.2988152 34.8820827,14.359535 35.3498543,14.4811751 C35.817626,14.6026147 36.3069252,14.7737524 36.817752,14.9943877 L36.1397346,16.621799 C35.6108005,16.4057727 35.17361,16.254875 34.8277608,16.1695065 C34.4821128,16.0839377 34.1418969,16.0410531 33.8075156,16.0410531 C33.4097588,16.0410531 33.1045504,16.1334354 32.8922927,16.3179995 C32.6798338,16.5025637 32.5736044,16.743439 32.5736044,17.0404251 C32.5736044,17.2251897 32.6164583,17.3861072 32.7023673,17.5231777 C32.7882764,17.6606489 32.9248858,17.7935111 33.112598,17.9217642 C33.3001091,18.0500172 33.7441401,18.2808728 34.4448922,18.61393 C35.3713819,19.0552007 36.0063442,19.4974734 36.3499803,19.9409485 C36.6934152,20.3844236 36.8652333,20.9280964 36.8652333,21.5717665" id="Fill-9" fill="#4C4F4F"></path>
                        <polyline id="Fill-10" fill="#4C4F4F" points="44.1829924 24.3133772 38.4743675 24.3133772 38.4743675 14.4406956 44.1829924 14.4406956 44.1829924 16.1558802 40.5762214 16.1558802 40.5762214 18.3235576 43.9321058 18.3235576 43.9321058 20.0387421 40.5762214 20.0387421 40.5762214 22.5845657 44.1829924 22.5845657 44.1829924 24.3133772"></polyline>
                        <path d="M50.0861719,16.0410531 C49.2950845,16.0410531 48.6828569,16.3370371 48.2488855,16.9292056 C47.8151153,17.5211737 47.598029,18.3462017 47.598029,19.4040891 C47.598029,21.6056333 48.4273429,22.706205 50.0861719,22.706205 C50.7822966,22.706205 51.6252916,22.5330634 52.6151568,22.1861789 L52.6151568,23.9420436 C51.8015359,24.2797099 50.8929523,24.4484429 49.8896072,24.4484429 C48.4476633,24.4484429 47.3449293,24.0129836 46.5810029,23.1418647 C45.8170764,22.2707457 45.435415,21.0204787 45.435415,19.3906626 C45.435415,18.3642373 45.6227248,17.465063 45.9979481,16.692739 C46.3729702,15.9206154 46.9119639,15.3286473 47.6151303,14.9166343 C48.3178944,14.5048217 49.1413737,14.2988152 50.0861719,14.2988152 C51.0488762,14.2988152 52.0160067,14.5306727 52.9879658,14.9943877 L52.3099483,16.6961457 C51.9393525,16.5205993 51.5663423,16.3674972 51.1913202,16.2368394 C50.8160969,16.106382 50.4477141,16.0410531 50.0861719,16.0410531" id="Fill-11" fill="#4C4F4F"></path>
                        <path d="M62.4790021,14.4406956 L62.4790021,20.8291017 C62.4790021,21.5581403 62.3152317,22.1976022 61.9876909,22.746886 C61.6597478,23.2959695 61.1863428,23.7170003 60.5670735,24.0095777 C59.9478042,24.3023554 59.2158674,24.4484437 58.3704582,24.4484437 C57.0961074,24.4484437 56.1062423,24.1234023 55.401064,23.4727183 C54.6958856,22.8222347 54.3433971,21.9318778 54.3433971,20.8020483 L54.3433971,14.4406956 L56.4384104,14.4406956 L56.4384104,20.484622 C56.4384104,21.2455234 56.5921212,21.8036247 56.8993415,22.1591262 C57.2065619,22.5150285 57.7151755,22.6925789 58.42478,22.6925789 C59.1116499,22.6925789 59.6100027,22.5138262 59.9198385,22.1559199 C60.229272,21.7980137 60.3841899,21.2365056 60.3841899,20.4709951 L60.3841899,14.4406956 L62.4790021,14.4406956" id="Fill-12" fill="#4C4F4F"></path>
                        <path d="M66.5861344,18.8233438 L67.264353,18.8233438 C67.9286894,18.8233438 68.4189946,18.7131263 68.7354698,18.4922906 C69.0517438,18.2718556 69.210082,17.9251715 69.210082,17.4524386 C69.210082,16.9843149 69.0485247,16.6510573 68.725209,16.4530666 C68.4020944,16.2548755 67.9017297,16.1558801 67.223511,16.1558801 L66.5861344,16.1558801 L66.5861344,18.8233438 Z M66.5861343,20.5251018 L66.5861343,24.3133772 L64.4844816,24.3133772 L64.4844816,14.4406956 L67.3727955,14.4406956 C68.7195755,14.4406956 69.7162812,14.6847773 70.3627114,15.1733413 C71.0089405,15.6619054 71.332055,16.4035689 71.332055,17.3983319 C71.332055,17.9792782 71.1715037,18.4956973 70.8508035,18.9481902 C70.5299021,19.4006831 70.0756103,19.7551826 69.4879281,20.0116887 C70.9795664,22.231469 71.9511231,23.6650979 72.403403,24.3133772 L70.071184,24.3133772 L67.7049637,20.5251018 L66.5861343,20.5251018 L66.5861343,20.5251018 Z" id="Fill-13" fill="#4C4F4F"></path>
                        <g id="Group-18">
                            <mask id="mask-2" fill="white">
                                <use xlink:href="#path-1"></use>
                            </mask>
                            <g id="Clip-15" opacity="0.899999976"></g>
                            <polyline id="Fill-14" fill="#4C4F4F" mask="url(#mask-2)" points="79.1944411 24.3133772 73.4858162 24.3133772 73.4858162 14.4406956 79.1944411 14.4406956 79.1944411 16.1558802 75.5876702 16.1558802 75.5876702 18.3235576 78.9435546 18.3235576 78.9435546 20.0387421 75.5876702 20.0387421 75.5876702 22.5845657 79.1944411 22.5845657 79.1944411 24.3133772"></polyline>
                            <polyline id="Fill-16" fill="#AD262A" mask="url(#mask-2)" points="5.18069668 19.8752147 5.18069668 8.09777403 12.6398939 11.5337543 12.6398939 5.85154149 0 0.0298534286 0 23.1689142 12.6398939 28.9956122 12.6398939 23.3127982 5.18069668 19.8752147"></polyline>
                            <polyline id="Fill-17" fill="#5E1D1B" mask="url(#mask-2)" points="20.0937398 19.8752147 20.0937398 8.09777403 12.6347438 11.5337543 12.6347438 5.85154149 25.2744365 0.0298534286 25.2744365 23.1689142 12.6347438 28.9956122 12.6347438 23.3127982 20.0937398 19.8752147"></polyline>
                        </g>
                    </g>
                </g>
            </g>
        </g>
    </g>
</svg>