<?xml version="1.0" encoding="UTF-8"?>
<svg width="200px" height="70px" viewBox="0 0 200 70" version="1.1" xmlns="http://www.w3.org/2000/svg" xmlns:xlink="http://www.w3.org/1999/xlink">
    <!-- Generator: Sketch 49.3 (51167) - http://www.bohemiancoding.com/sketch -->
    <title>logo/mcafee-secure-trustmark</title>
    <desc>Created with Sketch.</desc>
    <defs>
        <polygon id="path-1" points="0.0279738999 0.213555734 183.520906 0.213555734 183.520906 67.8788773 0.0279738999 67.8788773"></polygon>
    </defs>
    <g id="logo/mcafee-secure-trustmark" stroke="none" stroke-width="1" fill="none" fill-rule="evenodd">
        <g id="mcafee-secure-s-rgb" transform="translate(3.720930, 0.930233)">
            <path d="M110.911385,21.723676 L106.885941,19.321174 L106.587086,19.7918396 C105.669542,21.2398974 104.415845,21.9742294 102.861895,21.9728244 C100.199712,21.9714194 98.1930511,19.9538797 98.1944498,17.2792815 C98.1958485,14.6051516 100.204841,12.5904218 102.867024,12.5913585 C104.442887,12.5927634 105.627115,13.2882245 106.592681,14.7807731 L106.8934,15.2444138 L110.937494,12.8367602 L110.58782,12.3286287 C108.656222,9.5177482 106.131111,8.15117883 102.869821,8.14883721 C96.7039072,8.14602727 93.3740806,12.849405 93.3722157,17.2760032 C93.3698846,21.7035381 96.6936501,26.4111307 102.859564,26.4139407 C106.000567,26.415814 108.964401,24.8108677 110.59528,22.2247827 L110.911385,21.723676" id="Fill-1" fill="#AD262A"></path>
            <path d="M122.141507,11.765235 L124.393872,17.4460048 L119.85837,17.4431949 L122.141507,11.765235 Z M110.709506,26.4186239 L116.27538,26.4219022 L117.928638,22.2898797 L126.280245,22.294563 L127.929307,26.4279904 L133.518492,26.431737 L123.54906,2.21517241 L118.584626,2.21189415 L119.906392,5.42225501 L110.709506,26.4186239 Z" id="Fill-2" fill="#AD262A"></path>
            <path d="M135.822609,26.4322053 L140.705919,26.4350152 L140.71198,15.567089 L143.896343,15.5689623 L143.898674,11.0093601 L140.714312,11.0074868 L140.71571,8.85272815 C140.71571,7.92825662 141.332535,6.94618123 142.474802,6.94664956 C143.10235,6.94711788 143.481396,7.0548324 143.858578,7.21734082 L144.40267,7.45243945 L146.431244,3.00336167 L145.847056,2.76357979 C144.939303,2.38938893 143.675349,2.25544828 142.793705,2.25497995 C140.579104,2.25357498 138.753807,2.98088212 137.513631,4.35728629 C136.430575,5.55900561 135.833332,7.23092221 135.831934,9.06300561 L135.830535,11.0046768 L133.674213,11.0037402 L133.671882,15.5633424 L135.82867,15.5638107 L135.822609,26.4322053" id="Fill-3" fill="#AD262A"></path>
            <polyline id="Fill-4" fill="#AD262A" points="70.3496961 2.07186528 70.3496961 26.3952077 75.6558786 26.3989543 75.6638046 12.4930104 80.8063399 16.3416969 85.9535374 12.4930104 85.9535374 26.4045742 91.2517941 26.4073841 91.2653148 2.07186528 80.8100697 10.0076151 70.3496961 2.07186528"></polyline>
            <path d="M150.635255,15.0879936 C151.272594,13.4287217 152.648443,12.4602277 154.425719,12.4606961 C156.221643,12.4616327 157.624068,13.4104571 158.367241,15.0922085 L150.635255,15.0879936 Z M154.894281,8.2326672 C148.747483,8.22938893 145.427447,12.9191852 145.424184,17.3326704 C145.422785,21.7475605 148.737226,26.4401668 154.884491,26.4439134 L154.891018,26.4439134 C157.709854,26.413004 160.352922,25.1232398 162.399213,22.7961379 L158.416195,20.6142165 C157.394682,21.6646672 156.154506,22.2172895 154.786116,22.2163528 C152.780387,22.2149479 151.001713,20.872263 150.536414,19.1165164 L163.818888,19.1235413 L163.81982,17.9119872 C163.823084,11.2393071 158.602688,8.2345405 154.894281,8.2326672 Z" id="Fill-5" fill="#AD262A"></path>
            <path d="M170.598829,15.0992334 C171.235701,13.4399615 172.610152,12.4709992 174.388826,12.4724042 C176.18475,12.4728725 177.587642,13.4221652 178.330815,15.1039166 L170.598829,15.0992334 Z M174.856923,8.24390698 C168.709658,8.24016038 165.391021,12.9299567 165.388224,17.3439102 C165.385426,21.7592686 168.699401,26.4514066 174.847598,26.4546848 L174.853659,26.4546848 C177.672962,26.4242438 180.316495,25.1335429 182.361854,22.8073777 L178.378837,20.6254563 C177.357323,21.675907 176.117613,22.2285293 174.749689,22.2275926 C172.743028,22.2261877 170.964354,20.8839711 170.499521,19.1277562 L183.781529,19.1347811 L183.782928,17.9232269 C183.786658,11.2505469 178.565796,8.24578027 174.856923,8.24390698 Z" id="Fill-6" fill="#AD262A"></path>
            <polyline id="Fill-7" fill="#4C4F4F" points="186.55281 33.7478941 189.781465 33.7478941 189.781465 34.3539054 188.513314 34.3539054 188.513314 37.7530008 187.815366 37.7530008 187.815366 34.3539054 186.55281 34.3539054 186.55281 33.7478941"></polyline>
            <polyline id="Fill-8" fill="#4C4F4F" points="190.233243 33.7478941 191.216059 33.7478941 192.316832 36.8837915 192.327556 36.8837915 193.400355 33.7478941 194.371515 33.7478941 194.371515 37.7530008 193.707135 37.7530008 193.707135 34.6620626 193.695946 34.6620626 192.590977 37.7530008 192.014714 37.7530008 190.908346 34.6620626 190.897623 34.6620626 190.897623 37.7530008 190.233243 37.7530008 190.233243 33.7478941"></polyline>
            <path d="M85.4294931,50.4132029 C85.4294931,52.4963079 84.6830562,54.1377835 83.1906486,55.3366929 C81.6977748,56.5365389 79.621179,57.1359936 76.9613273,57.1359936 C74.5098812,57.1359936 72.341904,56.6732895 70.4569293,55.747413 L70.4569293,51.2023288 C72.0066834,51.8968532 73.3186593,52.3862518 74.3923908,52.6700561 C75.4656561,52.9538605 76.44754,53.096231 77.3380425,53.096231 C78.4066455,53.096231 79.2258145,52.8911051 79.7969483,52.4808532 C80.3676159,52.0706014 80.6534159,51.4603753 80.6534159,50.6497065 C80.6534159,50.1977739 80.5275333,49.7950152 80.2762345,49.4423673 C80.0249356,49.0901877 79.6556801,48.7511211 79.168468,48.4246993 C78.6817222,48.0987458 77.6886487,47.5779695 76.1911126,46.8623705 C74.7877553,46.1996921 73.7350042,45.5627715 73.0333255,44.9525453 C72.3311806,44.3427875 71.7707702,43.63234 71.3520941,42.8221395 C70.9329519,42.0119391 70.7236139,41.0654563 70.7236139,39.9812863 C70.7236139,37.9403304 71.412238,36.3358524 72.7894864,35.1678524 C74.1672009,34.0003208 76.0703586,33.4163208 78.5008243,33.4163208 C79.6948436,33.4163208 80.8338475,33.5582229 81.9178361,33.8424956 C83.0018248,34.1262999 84.1357002,34.5262486 85.3194624,35.0418733 L83.7482617,38.8451323 C82.5225386,38.3402791 81.5094172,37.9876311 80.707965,37.7881251 C79.906979,37.5881508 79.1185812,37.4879294 78.3437042,37.4879294 C77.4219642,37.4879294 76.7146908,37.7038268 76.2228164,38.1351532 C75.7304757,38.5664796 75.4843054,39.129405 75.4843054,39.8234611 C75.4843054,40.2552558 75.5836127,40.63132 75.7826937,40.9516536 C75.9817746,41.2729238 76.2983459,41.5834226 76.73334,41.88315 C77.1678679,42.1828773 78.1968412,42.7223865 79.8207261,43.500741 C81.9677229,44.5319904 83.4391501,45.5655814 84.2354738,46.6019824 C85.0313312,47.6383833 85.4294931,48.9089463 85.4294931,50.4132029" id="Fill-9" fill="#4C4F4F"></path>
            <polyline id="Fill-10" fill="#4C4F4F" points="102.387271 56.8203432 89.1584139 56.8203432 89.1584139 33.7478941 102.387271 33.7478941 102.387271 37.7562791 94.0291361 37.7562791 94.0291361 42.8221395 101.80588 42.8221395 101.80588 46.8305245 94.0291361 46.8305245 94.0291361 52.7801123 102.387271 52.7801123 102.387271 56.8203432"></polyline>
            <path d="M116.066975,37.4879294 C114.233752,37.4879294 112.815009,38.1796439 111.809347,39.5635413 C110.804151,40.9469703 110.301088,42.8750601 110.301088,45.3473424 C110.301088,50.4923496 112.222894,53.0643849 116.066975,53.0643849 C117.680136,53.0643849 119.633647,52.659753 121.927507,51.8490842 L121.927507,55.9525389 C120.042066,56.7416648 117.936563,57.1359936 115.611466,57.1359936 C112.269984,57.1359936 109.714568,56.1183256 107.944286,54.0825213 C106.174005,52.0467169 105.289563,49.1248436 105.289563,45.3159647 C105.289563,42.9172093 105.723625,40.8158396 106.593147,39.010919 C107.462203,37.2064667 108.711238,35.8230377 110.340717,34.8601636 C111.969264,33.8977578 113.877551,33.4163208 116.066975,33.4163208 C118.297893,33.4163208 120.539069,33.9581716 122.791434,35.0418733 L121.220233,39.0188805 C120.361434,38.6086287 119.497041,38.2508292 118.627985,37.945482 C117.758463,37.640603 116.904793,37.4879294 116.066975,37.4879294" id="Fill-11" fill="#4C4F4F"></path>
            <path d="M144.785446,33.7478941 L144.785446,48.6775942 C144.785446,50.3813569 144.405934,51.8757787 143.646909,53.1594547 C142.886951,54.4426624 141.789908,55.4266111 140.354847,56.1103641 C138.919786,56.7945854 137.223635,57.1359936 135.26453,57.1359936 C132.311418,57.1359936 130.017558,56.3763721 128.383416,54.8557241 C126.749274,53.3355445 125.932437,51.2547811 125.932437,48.6143705 L125.932437,33.7478941 L130.787307,33.7478941 L130.787307,47.8725453 C130.787307,49.6507715 131.143508,50.9550537 131.855444,51.7858605 C132.567379,52.6176038 133.746013,53.0325389 135.390412,53.0325389 C136.982127,53.0325389 138.136983,52.6147939 138.85498,51.7783673 C139.572044,50.9419407 139.931042,49.6296969 139.931042,47.8406993 L139.931042,33.7478941 L144.785446,33.7478941" id="Fill-12" fill="#4C4F4F"></path>
            <path d="M154.3031,43.9901395 L155.874767,43.9901395 C157.414264,43.9901395 158.55047,43.7325613 159.283853,43.2164683 C160.016769,42.7013119 160.383693,41.8911115 160.383693,40.7863352 C160.383693,39.6923304 160.009309,38.9135076 159.260075,38.4508035 C158.511307,37.9876311 157.351789,37.7562791 155.780122,37.7562791 L154.3031,37.7562791 L154.3031,43.9901395 Z M154.3031,47.9671468 L154.3031,56.8203432 L149.432844,56.8203432 L149.432844,33.7478941 L156.126065,33.7478941 C159.24702,33.7478941 161.556732,34.3183128 163.054734,35.4600866 C164.55227,36.6018605 165.301038,38.3351275 165.301038,40.6598877 C165.301038,42.0175589 164.928986,43.2244298 164.185812,44.2819054 C163.442173,45.3393809 162.389422,46.167846 161.027559,46.7673007 C164.484201,51.9549254 166.735633,55.3053152 167.783722,56.8203432 L162.379165,56.8203432 L156.895814,47.9671468 L154.3031,47.9671468 Z" id="Fill-13" fill="#4C4F4F"></path>
            <g id="Group-18">
                <mask id="mask-2" fill="white">
                    <use xlink:href="#path-1"></use>
                </mask>
                <g id="Clip-15"></g>
                <polyline id="Fill-14" fill="#4C4F4F" mask="url(#mask-2)" points="183.520906 56.8203432 170.292048 56.8203432 170.292048 33.7478941 183.520906 33.7478941 183.520906 37.7562791 175.162771 37.7562791 175.162771 42.8221395 182.939515 42.8221395 182.939515 46.8305245 175.162771 46.8305245 175.162771 52.7801123 183.520906 52.7801123 183.520906 56.8203432"></polyline>
                <polyline id="Fill-16" fill="#AD262A" mask="url(#mask-2)" points="12.0054654 46.5921476 12.0054654 19.0682791 29.2910044 27.098162 29.2910044 13.8188356 0 0.213555734 0 54.2895204 29.2910044 67.9065084 29.2910044 54.6257771 12.0054654 46.5921476"></polyline>
                <polyline id="Fill-17" fill="#5E1D1B" mask="url(#mask-2)" points="46.5760772 46.5921476 46.5760772 19.0682791 29.2910044 27.098162 29.2910044 13.8188356 58.5815426 0.213555734 58.5815426 54.2895204 29.2910044 67.9065084 29.2910044 54.6257771 46.5760772 46.5921476"></polyline>
            </g>
        </g>
    </g>
</svg>