<?xml version="1.0" encoding="UTF-8"?>
<svg width="81px" height="23px" viewBox="0 0 81 23" version="1.1" xmlns="http://www.w3.org/2000/svg" xmlns:xlink="http://www.w3.org/1999/xlink">
    <!-- Generator: sketchtool 54.1 (76490) - https://sketchapp.com -->
    <title>3532D36C-9E32-4E33-9583-FD3CFE12D61D</title>
    <desc>Created with sketchtool.</desc>
    <g id="Wordpress" stroke="none" stroke-width="1" fill="none" fill-rule="evenodd">
        <g id="Lite" transform="translate(-991.000000, -482.000000)">
            <g id="operated-by-trustedsite-colored-vertical-center" transform="translate(991.000000, 480.000000)">
                <path d="M22.3603833,5.21484375 C22.3603833,6.12891082 22.1245819,6.84765363 21.6529721,7.37109375 C21.1813623,7.89453387 20.5257681,8.15625 19.6861698,8.15625 C18.8279728,8.15625 18.1657362,7.89909111 17.6994403,7.38476562 C17.2331445,6.87044014 17,6.14453594 17,5.20703125 C17,4.27734375 17.2338087,3.55664318 17.7014331,3.04492188 C18.1690574,2.53320057 18.8332866,2.27734375 19.6941406,2.27734375 C20.5310819,2.27734375 21.1846835,2.53775781 21.6549648,3.05859375 C22.1252461,3.57942969 22.3603833,4.2981725 22.3603833,5.21484375 Z M17.7173747,5.21484375 C17.7173747,5.98828512 17.8854247,6.57486779 18.2215297,6.97460937 C18.5576347,7.37435096 19.0458432,7.57421875 19.6861698,7.57421875 C20.3318102,7.57421875 20.8193545,7.37500199 21.1488171,6.9765625 C21.4782797,6.57812301 21.6430086,5.9908893 21.6430086,5.21484375 C21.6430086,4.44661074 21.478944,3.86393428 21.1508098,3.46679688 C20.8226757,3.06965947 20.3371241,2.87109375 19.6941406,2.87109375 C19.0485001,2.87109375 18.5576347,3.07096154 18.2215297,3.47070312 C17.8854247,3.87044471 17.7173747,4.4518191 17.7173747,5.21484375 Z M25.5925549,8.15625 C25.3082605,8.15625 25.0485469,8.10481822 24.8134063,8.00195312 C24.5782656,7.89908803 24.3809895,7.74088648 24.2215721,7.52734375 L24.1737471,7.52734375 C24.2056306,7.777345 24.2215721,8.0143218 24.2215721,8.23828125 L24.2215721,10 L23.5599932,10 L23.5599932,3.796875 L24.0980243,3.796875 L24.1896888,4.3828125 L24.2215721,4.3828125 C24.3916173,4.14843633 24.5895576,3.97916719 24.815399,3.875 C25.0412403,3.77083281 25.3002897,3.71875 25.5925549,3.71875 C26.1717715,3.71875 26.6187977,3.91275848 26.9336471,4.30078125 C27.2484964,4.68880402 27.4059188,5.23306941 27.4059188,5.93359375 C27.4059188,6.63672227 27.2458395,7.18294076 26.9256762,7.57226562 C26.605513,7.96159049 26.1611436,8.15625 25.5925549,8.15625 Z M25.4969049,4.26953125 C25.0505362,4.26953125 24.7277208,4.39062379 24.5284491,4.6328125 C24.3291773,4.87500121 24.226886,5.26041402 24.2215721,5.7890625 L24.2215721,5.93359375 C24.2215721,6.53515926 24.3238634,6.9654935 24.5284491,7.22460937 C24.7330347,7.48372525 25.061164,7.61328125 25.5128466,7.61328125 C25.8901345,7.61328125 26.1857164,7.46354316 26.3996015,7.1640625 C26.6134865,6.86458184 26.7204274,6.45182555 26.7204274,5.92578125 C26.7204274,5.39192441 26.6134865,4.9824233 26.3996015,4.69726562 C26.1857164,4.41210795 25.8848206,4.26953125 25.4969049,4.26953125 Z M30.4069363,8.15625 C29.7612958,8.15625 29.251832,7.96354359 28.8785296,7.578125 C28.5052272,7.19270641 28.3185788,6.65755551 28.3185788,5.97265625 C28.3185788,5.28254863 28.4919426,4.73437703 28.8386755,4.328125 C29.1854083,3.92187297 29.651033,3.71875 30.2355635,3.71875 C30.7828965,3.71875 31.215974,3.89518053 31.5348088,4.24804688 C31.8536436,4.60091322 32.0130586,5.06640336 32.0130586,5.64453125 L32.0130586,6.0546875 L29.0040702,6.0546875 C29.017355,6.55729418 29.1468797,6.93880078 29.3926482,7.19921875 C29.6384167,7.45963672 29.9844801,7.58984375 30.4308488,7.58984375 C30.9011301,7.58984375 31.3660906,7.49349055 31.8257441,7.30078125 L31.8257441,7.87890625 C31.5919319,7.97786508 31.3707436,8.04882791 31.1621725,8.09179688 C30.9536014,8.13476584 30.7018585,8.15625 30.4069363,8.15625 Z M30.2275926,4.26171875 C29.8768744,4.26171875 29.5972339,4.3736968 29.3886628,4.59765625 C29.1800917,4.8216157 29.0572093,5.13150844 29.0200119,5.52734375 L31.3036547,5.52734375 C31.3036547,5.11848754 31.2106626,4.80533963 31.0246757,4.58789062 C30.8386887,4.37044162 30.572997,4.26171875 30.2275926,4.26171875 Z M35.1336386,3.71875 C35.3275964,3.71875 35.5016245,3.73437484 35.655728,3.765625 L35.5640634,4.3671875 C35.3833904,4.3281248 35.2239754,4.30859375 35.0858136,4.30859375 C34.7324384,4.30859375 34.4302141,4.44921734 34.1791317,4.73046875 C33.9280493,5.01172016 33.80251,5.36197707 33.80251,5.78125 L33.80251,8.078125 L33.1409311,8.078125 L33.1409311,3.796875 L33.6869329,3.796875 L33.7626558,4.58984375 L33.7945391,4.58984375 C33.9566135,4.31119652 34.1518969,4.09635492 34.3803951,3.9453125 C34.6088934,3.79427008 34.8599721,3.71875 35.1336386,3.71875 Z M39.1589078,8.078125 L39.0273891,7.46875 L38.9955058,7.46875 C38.7776354,7.73698051 38.5604324,7.91861932 38.3438904,8.01367188 C38.1273485,8.10872443 37.8570072,8.15625 37.5328585,8.15625 C37.0997745,8.15625 36.7603534,8.04687609 36.5145849,7.828125 C36.2688164,7.60937391 36.145934,7.2981791 36.145934,6.89453125 C36.145934,6.02994359 36.8513454,5.57682312 38.2621894,5.53515625 L39.0034766,5.51171875 L39.0034766,5.24609375 C39.0034766,4.91015457 38.9297472,4.66211018 38.7822861,4.50195312 C38.634825,4.34179607 38.3990236,4.26171875 38.0748749,4.26171875 C37.7108719,4.26171875 37.2990498,4.37109266 36.8393963,4.58984375 L36.6361401,4.09375 C36.8513536,3.97916609 37.0871549,3.88932324 37.3435513,3.82421875 C37.5999476,3.75911426 37.8570043,3.7265625 38.1147291,3.7265625 C38.6354926,3.7265625 39.0214098,3.83984262 39.2724922,4.06640625 C39.5235746,4.29296988 39.6491139,4.6562475 39.6491139,5.15625 L39.6491139,8.078125 L39.1589078,8.078125 Z M37.6643772,7.62109375 C38.0762055,7.62109375 38.3996851,7.51041777 38.6348257,7.2890625 C38.8699664,7.06770723 38.987535,6.75781449 38.987535,6.359375 L38.987535,5.97265625 L38.3259561,6 C37.7998787,6.01822926 37.4206038,6.09830658 37.1881201,6.24023437 C36.9556364,6.38216217 36.8393963,6.60286309 36.8393963,6.90234375 C36.8393963,7.13671992 36.9117972,7.31510355 37.0566014,7.4375 C37.2014055,7.55989645 37.4039954,7.62109375 37.6643772,7.62109375 Z M42.4229628,7.62109375 C42.5398689,7.62109375 42.6527878,7.61263029 42.7617231,7.59570312 C42.8706583,7.57877596 42.9570081,7.56119801 43.020775,7.54296875 L43.020775,8.0390625 C42.9490372,8.07291684 42.8434248,8.10091135 42.7039345,8.12304688 C42.5644443,8.1451824 42.438905,8.15625 42.3273128,8.15625 C41.4824006,8.15625 41.0599508,7.72005645 41.0599508,6.84765625 L41.0599508,4.30078125 L40.4342407,4.30078125 L40.4342407,3.98828125 L41.0599508,3.71875 L41.3389299,2.8046875 L41.7215297,2.8046875 L41.7215297,3.796875 L42.9888917,3.796875 L42.9888917,4.30078125 L41.7215297,4.30078125 L41.7215297,6.8203125 C41.7215297,7.07812629 41.7839673,7.27604098 41.9088442,7.4140625 C42.0337212,7.55208402 42.2050923,7.62109375 42.4229628,7.62109375 Z M45.7388281,8.15625 C45.0931876,8.15625 44.5837238,7.96354359 44.2104214,7.578125 C43.837119,7.19270641 43.6504706,6.65755551 43.6504706,5.97265625 C43.6504706,5.28254863 43.8238344,4.73437703 44.1705673,4.328125 C44.5173001,3.92187297 44.9829248,3.71875 45.5674553,3.71875 C46.1147883,3.71875 46.5478658,3.89518053 46.8667006,4.24804688 C47.1855354,4.60091322 47.3449504,5.06640336 47.3449504,5.64453125 L47.3449504,6.0546875 L44.335962,6.0546875 C44.3492468,6.55729418 44.4787715,6.93880078 44.72454,7.19921875 C44.9703085,7.45963672 45.3163719,7.58984375 45.7627406,7.58984375 C46.2330219,7.58984375 46.6979824,7.49349055 47.1576359,7.30078125 L47.1576359,7.87890625 C46.9238237,7.97786508 46.7026354,8.04882791 46.4940643,8.09179688 C46.2854932,8.13476584 46.0337503,8.15625 45.7388281,8.15625 Z M45.5594844,4.26171875 C45.2087662,4.26171875 44.9291257,4.3736968 44.7205546,4.59765625 C44.5119835,4.8216157 44.3891011,5.13150844 44.3519037,5.52734375 L46.6355465,5.52734375 C46.6355465,5.11848754 46.5425544,4.80533963 46.3565675,4.58789062 C46.1705805,4.37044162 45.9048888,4.26171875 45.5594844,4.26171875 Z M51.4459425,7.50390625 L51.4100738,7.50390625 C51.1045238,7.93880426 50.6475341,8.15625 50.039091,8.15625 C49.4678453,8.15625 49.023476,7.96484566 48.7059696,7.58203125 C48.3884633,7.19921684 48.2297125,6.65495145 48.2297125,5.94921875 C48.2297125,5.24348605 48.3891276,4.69531445 48.7079624,4.3046875 C49.0267972,3.91406055 49.4705023,3.71875 50.039091,3.71875 C50.6315923,3.71875 51.0859251,3.92968539 51.4021029,4.3515625 L51.4539133,4.3515625 L51.4260154,4.04296875 L51.4100738,3.7421875 L51.4100738,2 L52.0716527,2 L52.0716527,8.078125 L51.5336216,8.078125 L51.4459425,7.50390625 Z M50.1227847,7.61328125 C50.5744673,7.61328125 50.9019323,7.49283975 51.1051895,7.25195312 C51.3084467,7.0110665 51.4100738,6.62239852 51.4100738,6.0859375 L51.4100738,5.94921875 C51.4100738,5.34244488 51.3071182,4.9095065 51.1012041,4.65039062 C50.89529,4.39127475 50.5664965,4.26171875 50.1148139,4.26171875 C49.7268982,4.26171875 49.4299877,4.40950373 49.2240736,4.70507812 C49.0181595,5.00065252 48.9152039,5.41796605 48.9152039,5.95703125 C48.9152039,6.50390898 49.0174952,6.91666527 49.2220809,7.1953125 C49.4266666,7.47395973 49.7268982,7.61328125 50.1227847,7.61328125 Z M57.6273213,3.7265625 C58.2012239,3.7265625 58.6469217,3.91861787 58.9644281,4.30273438 C59.2819344,4.68685088 59.4406852,5.23046523 59.4406852,5.93359375 C59.4406852,6.63672227 59.2806059,7.18294076 58.9604426,7.57226562 C58.6402794,7.96159049 58.19591,8.15625 57.6273213,8.15625 C57.3430269,8.15625 57.0833133,8.10481822 56.8481726,8.00195312 C56.613032,7.89908803 56.4157559,7.74088648 56.2563385,7.52734375 L56.2085135,7.52734375 L56.069024,8.078125 L55.5947596,8.078125 L55.5947596,2 L56.2563385,2 L56.2563385,3.4765625 C56.2563385,3.80729332 56.2457108,4.10416535 56.2244552,4.3671875 L56.2563385,4.3671875 C56.5645455,3.94010203 57.0215352,3.7265625 57.6273213,3.7265625 Z M57.5316713,4.26953125 C57.0799887,4.26953125 56.7545164,4.39648311 56.5552446,4.65039062 C56.3559729,4.90429814 56.2563385,5.33202824 56.2563385,5.93359375 C56.2563385,6.53515926 56.3586298,6.9654935 56.5632155,7.22460937 C56.7678011,7.48372525 57.0959304,7.61328125 57.547613,7.61328125 C57.9541274,7.61328125 58.2570159,7.46810041 58.4562876,7.17773437 C58.6555594,6.88736834 58.7551938,6.4700548 58.7551938,5.92578125 C58.7551938,5.3684868 58.6555594,4.95312637 58.4562876,4.6796875 C58.2570159,4.40624863 57.9488135,4.26953125 57.5316713,4.26953125 Z M59.9029933,3.796875 L60.6123972,3.796875 L61.5688968,6.23828125 C61.7787964,6.7955757 61.9089853,7.19791543 61.9594675,7.4453125 L61.9913508,7.4453125 C62.0258912,7.31249934 62.0982922,7.08528807 62.2085559,6.76367188 C62.3188196,6.44205568 62.6794961,5.45313328 63.2905961,3.796875 L64,3.796875 L62.1228695,8.671875 C61.9368825,9.15364824 61.7196796,9.4954417 61.4712541,9.69726562 C61.2228287,9.89908955 60.9179475,10 60.5566014,10 C60.3546727,10 60.1554039,9.9778648 59.9587891,9.93359375 L59.9587891,9.4140625 C60.1049217,9.44531266 60.2683221,9.4609375 60.4489952,9.4609375 C60.9033348,9.4609375 61.2274786,9.21094 61.4214364,8.7109375 L61.6645468,8.1015625 L59.9029933,3.796875 Z" id="Operated-by" fill="#939598"></path>
                <g id="logo/trustedsite" transform="translate(0.000000, 11.000000)">
                    <g id="logo/solid">
                        <g id="Logo">
                            <path d="M78.6882948,4.71933074 L78.6882948,5.24349073 L78.3876529,5.24349073 L78.3876529,3.94103256 C78.5063273,3.91720711 78.6724715,3.90132347 78.8860855,3.90132347 C79.1313459,3.90132347 79.2421087,3.94103256 79.3370483,3.99662529 C79.4082529,4.05221802 79.4636343,4.15546165 79.4636343,4.28253074 C79.4636343,4.42548347 79.3528715,4.53666892 79.194639,4.58431983 L79.194639,4.60020347 C79.321225,4.64785438 79.3924297,4.74315619 79.4319878,4.91787619 C79.4715459,5.11642164 79.4952808,5.19583982 79.5269273,5.24349073 L79.2025506,5.24349073 C79.1629925,5.19583982 79.1392576,5.07671255 79.0996994,4.92581801 C79.0759645,4.78286528 78.9968483,4.71933074 78.8307041,4.71933074 L78.6882948,4.71933074 Z M78.6962064,4.13163616 L78.6962064,4.50490163 L78.8386157,4.50490163 C79.0047599,4.50490163 79.1392576,4.4493089 79.1392576,4.31429799 C79.1392576,4.19517071 79.0522297,4.11575253 78.8623506,4.11575253 C78.7832343,4.11575253 78.7278529,4.12369435 78.6962064,4.13163616 Z M78.8939972,3.25803622 C79.6456018,3.25803622 80.2231507,3.83778892 80.2231507,4.56049435 C80.2231507,5.29908341 79.6456018,5.87883611 78.8939972,5.87883611 C78.1503041,5.87883611 77.556932,5.29908341 77.556932,4.56049435 C77.556932,3.83778892 78.1503041,3.25803622 78.8939972,3.25803622 Z M78.8939972,3.52011622 C78.3164483,3.52011622 77.8892204,3.98868348 77.8892204,4.56049436 C77.8892204,5.14024706 78.3164483,5.6008725 78.9019088,5.6008725 C79.4715461,5.6008725 79.8908624,5.14024706 79.8908624,4.56843618 C79.8908624,3.98868348 79.4715461,3.52011622 78.8939972,3.52011622 Z" id="®" fill="#80C600"></path>
                            <path d="M75.7378239,7.2020622 C75.7378239,6.71945743 75.533202,5.91099429 74.6371052,5.91099429 C73.8179338,5.91099429 73.4849318,6.66738279 73.4336481,7.2020622 L75.7378239,7.2020622 Z M73.44664,8.55844103 C73.5105737,9.37979219 74.3042741,9.77113571 75.2131918,9.77113571 C75.8785121,9.77113571 76.4163069,9.67987447 76.9411099,9.51024003 L77.1970155,10.8535567 C76.5569951,11.1142782 75.7762866,11.2447261 74.9313025,11.2447261 C72.8066197,11.2447261 71.5905127,9.99284479 71.5905127,7.99763723 C71.5905127,6.38036267 72.576185,4.593802 74.7521515,4.593802 C76.7746089,4.593802 77.5426675,6.19784019 77.5426675,7.77575399 C77.5426675,8.11502287 77.5043756,8.41475683 77.4787338,8.55844103 L73.44664,8.55844103 Z" id="Fill-19" fill="#80C600"></path>
                            <path d="M69.900799,2.91151226 L69.900799,4.73725959 L71.296057,4.73725959 L71.296057,6.19796195 L69.900799,6.19796195 L69.900799,8.50613989 C69.900799,9.2755906 70.080121,9.62774753 70.6688576,9.62774753 C70.9121132,9.62774753 71.1040851,9.60162312 71.2447733,9.57549872 L71.2575943,11.0752135 C71.0015177,11.179537 70.5408194,11.244848 69.9903745,11.244848 C69.3631751,11.244848 68.8383722,11.0229647 68.5311829,10.6971064 C68.172881,10.318825 67.993559,9.70594657 67.993559,8.80604802 L67.993559,6.19796195 L67.1615668,6.19796195 L67.1615668,4.73725959 L67.993559,4.73725959 L67.993559,3.35493044 L69.900799,2.91151226 Z" id="Fill-18" fill="#80C600"></path>
                            <path d="M64.3965771,11.114365 L66.3422799,11.114365 L66.3422799,4.73722476 L64.3965771,4.73722476 L64.3965771,11.114365 Z M66.4062135,2.96372627 C66.4062135,3.51146787 65.9967988,3.95471186 65.3567785,3.95471186 C64.7422291,3.95471186 64.3326435,3.51146787 64.3454644,2.96372627 C64.3326435,2.38986028 64.7422291,1.95950432 65.3695994,1.95950432 C65.9967988,1.95950432 66.3935636,2.38986028 66.4062135,2.96372627 L66.4062135,2.96372627 Z" id="Fill-16" fill="#80C600"></path>
                            <path d="M57.932436,9.06690876 C58.457068,9.34069249 59.2635894,9.61465037 60.0954107,9.61465037 C60.9916785,9.61465037 61.4651978,9.23654321 61.4651978,8.6626772 C61.4651978,8.1149356 61.0557831,7.80179111 60.0186561,7.42368395 C58.5851063,6.91512895 57.6507176,6.10649166 57.6507176,4.82866013 C57.6507176,3.32894535 58.8794746,2.18121334 60.914753,2.18121334 C61.8877753,2.18121334 62.6043793,2.38986022 63.1165323,2.62463151 L62.6811339,4.22866972 C62.3356528,4.05920944 61.7212743,3.81137596 60.8764611,3.81137596 C60.031477,3.81137596 59.6218914,4.20254532 59.6218914,4.65902568 C59.6218914,5.21982949 60.1084025,5.46748881 61.2219422,5.89801894 C62.7452385,6.47171078 63.4620134,7.28034807 63.4620134,8.51916716 C63.4620134,9.99275753 62.3484737,11.244813 59.9803643,11.244813 C58.9948629,11.244813 58.0218405,10.9839173 57.5356712,10.7101336 L57.932436,9.06690876 Z" id="Fill-14" fill="#80C600"></path>
                            <path d="M54.3734684,7.43676381 C54.3734684,7.33244037 54.3606475,7.18893031 54.3478266,7.08478103 C54.2326092,6.54992742 53.8102027,6.10650923 53.2086451,6.10650923 C52.3255401,6.10650923 51.8644999,6.91514657 51.8644999,7.91936862 C51.8644999,9.0017897 52.3894738,9.67980504 53.1958242,9.67980504 C53.7590899,9.67980504 54.2069674,9.28863565 54.3221847,8.7278318 C54.3606475,8.58432175 54.3734684,8.44098586 54.3734684,8.2713514 L54.3734684,7.43676381 Z M56.3190005,1.85519826 L56.3190005,9.21043621 C56.3190005,9.9276381 56.3446423,10.6840266 56.3702842,11.1143825 L54.642195,11.1143825 L54.5526195,10.1752974 L54.5269777,10.1752974 C54.1302129,10.8926735 53.3749753,11.2578926 52.5684539,11.2578926 C51.0837913,11.2578926 49.8933261,9.9668247 49.8933261,7.98450517 C49.8806761,5.83272536 51.1990086,4.59373211 52.6966631,4.59373211 C53.4647217,4.59373211 54.0662793,4.86769 54.3478267,5.31110816 L54.3734685,5.31110816 L54.3734685,1.85519826 L56.3190005,1.85519826 Z" id="Fill-12" fill="#323835"></path>
                            <path d="M47.6146057,7.2020622 C47.6146057,6.71945743 47.4098128,5.91099429 46.5138869,5.91099429 C45.6947156,5.91099429 45.3617136,6.66738279 45.3104299,7.2020622 L47.6146057,7.2020622 Z M45.3234218,8.55844103 C45.3873554,9.37979219 46.1808849,9.77113571 47.0898026,9.77113571 C47.7554648,9.77113571 48.2930887,9.67987447 48.8178917,9.51024003 L49.0737972,10.8535567 C48.4337769,11.1142782 47.6530684,11.2447261 46.8080843,11.2447261 C44.6834015,11.2447261 43.4672945,9.99284479 43.4672945,7.99763723 C43.4672945,6.38036267 44.4529668,4.593802 46.6289333,4.593802 C48.6513907,4.593802 49.4194492,6.19784019 49.4194492,7.77575399 C49.4194492,8.11502287 49.3809865,8.41475683 49.3555156,8.55844103 L45.3234218,8.55844103 Z" id="Fill-10" fill="#323835"></path>
                            <path d="M41.8031236,2.91151226 L41.8031236,4.73725959 L43.1983815,4.73725959 L43.1983815,6.19796195 L41.8031236,6.19796195 L41.8031236,8.50613989 C41.8031236,9.2755906 41.9824455,9.62774753 42.5711821,9.62774753 C42.8144377,9.62774753 43.0064096,9.60162312 43.1470978,9.57549872 L43.1599188,11.0752135 C42.9038423,11.179537 42.4431439,11.244848 41.8926991,11.244848 C41.2654997,11.244848 40.7406967,11.0229647 40.4335075,10.6971064 C40.0752055,10.318825 39.8960545,9.70594657 39.8960545,8.80604802 L39.8960545,6.19796195 L39.0640623,6.19796195 L39.0640623,4.73725959 L39.8960545,4.73725959 L39.8960545,3.35493044 L41.8031236,2.91151226 Z" id="Fill-8" fill="#323835"></path>
                            <path d="M34.2379424,9.3798618 C34.5964154,9.60157088 35.3388321,9.86246656 35.9147479,9.86246656 C36.5036555,9.86246656 36.7469111,9.65364551 36.7469111,9.32778716 C36.7469111,9.00175464 36.5549392,8.8451824 35.8253433,8.59752308 C34.5324817,8.15410492 34.0331496,7.43672888 34.0459705,6.6803404 C34.0459705,5.49377012 35.0444638,4.5938716 36.593231,4.5938716 C37.3228268,4.5938716 37.9756681,4.76333188 38.3596119,4.95909072 L38.0139599,6.32835764 C37.7324125,6.1717854 37.1947886,5.96313852 36.6571646,5.96313852 C36.1836453,5.96313852 35.9147479,6.1587232 35.9147479,6.48475572 C35.9147479,6.784838 36.1580035,6.94123608 36.9260621,7.2150198 C38.1165273,7.63248772 38.6156884,8.24536616 38.6285093,9.18427712 C38.6285093,10.3710216 37.7067706,11.2447957 35.9147479,11.2447957 C35.0955765,11.2447957 34.3659807,11.062099 33.8924614,10.8013775 L34.2379424,9.3798618 Z" id="Fill-6" fill="#323835"></path>
                            <path d="M33.1625232,9.06690895 C33.1625232,9.90149651 33.1879941,10.5798601 33.2138069,11.1143654 L31.5241806,11.1143654 L31.4344342,10.214641 L31.3961424,10.214641 C31.1528868,10.6058104 30.5639792,11.2578755 29.4376186,11.2578755 C28.1703989,11.2578755 27.2360103,10.4492381 27.2360103,8.48015489 L27.2360103,4.73722476 L29.194534,4.73722476 L29.194534,8.16718456 C29.194534,9.09285919 29.4889023,9.65366302 30.1673854,9.65366302 C30.7048384,9.65366302 31.0120276,9.27555584 31.1400659,8.96258551 C31.1913495,8.84519986 31.2039995,8.68862762 31.2039995,8.53222953 L31.2039995,4.73722476 L33.1625232,4.73722476 L33.1625232,9.06690895 Z" id="Fill-4" fill="#323835"></path>
                            <path d="M22.563725,6.83680815 C22.563725,5.89789715 22.5382541,5.28501868 22.5126122,4.73727706 L24.1894176,4.73727706 L24.2533512,5.91095935 L24.3046349,5.91095935 C24.6246451,4.98511055 25.3925327,4.59376701 25.9940902,4.59376701 C26.1734122,4.59376701 26.2629877,4.59376701 26.4038468,4.61989141 L26.4038468,6.48482538 C26.2629877,6.45870098 26.0966576,6.43257657 25.8790438,6.43257657 C25.162269,6.43257657 24.6757578,6.82392011 24.5477196,7.43679858 C24.5222487,7.56707226 24.5092568,7.72364451 24.5092568,7.88021676 L24.5092568,11.1144177 L22.563725,11.1144177 L22.563725,6.83680815 Z" id="Fill-2" fill="#323835"></path>
                            <polygon id="Fill-1" fill="#323835" points="18.3267362 3.99391598 16.0097395 3.99391598 16.0097395 2.32474088 22.6403776 2.32474088 22.6403776 3.99391598 20.2850891 3.99391598 20.2850891 11.1143829 18.3267362 11.1143829"></polygon>
                            <path d="M9.70772132,13.2363634 L0,13.2363634 L0,3.4917279 C0,1.56327094 1.55734903,0 3.4783252,0 L13.1860465,0 L13.1860465,9.74463551 C13.1860465,11.6730925 11.6286975,13.2363634 9.70772132,13.2363634" id="Fill-20" fill="#80C600"></path>
                            <path d="M10.489034,2.71660686 C10.3815093,2.60688437 10.2052643,2.60688437 10.0975686,2.71660686 L5.2047636,7.70149117 C5.09706787,7.81121366 4.9209939,7.81121366 4.81346912,7.70149117 L3.032045,5.88671601 C2.92452022,5.77699352 2.7482753,5.77699352 2.64057957,5.88671601 L1.46635423,7.08303949 C1.35882945,7.19276198 1.35882945,7.37214954 1.46635423,7.48187203 L4.81346912,10.8918032 C4.9209939,11.0013515 5.09706787,11.0013515 5.2047636,10.8918032 L11.6634303,4.31176287 C11.7709551,4.20204038 11.7709551,4.02265282 11.6634303,3.91293033 L10.489034,2.71660686 Z" id="Fill-21" fill="#FEFEFE"></path>
                        </g>
                    </g>
                </g>
            </g>
        </g>
    </g>
</svg>